HIERARCHY
ROOT root
{
	OFFSET 0.000000 0.000000 0.000000
	CHANNELS 6 Xposition Yposition Zposition Zrotation Yrotation Xrotation
	JOINT lhip
	{
		OFFSET 0.058581 -0.082280 -0.017664
		CHANNELS 3 Zrotation Yrotation Xrotation
		JOINT lknee
		{
			OFFSET 0.043451 -0.386469 0.008037
			CHANNELS 3 Zrotation Yrotation Xrotation
			JOINT lankle
			{
				OFFSET -0.014790 -0.426874 -0.037428
				CHANNELS 3 Zrotation Yrotation Xrotation
				JOINT ltoe
				{
					OFFSET 0.041054 -0.060286 0.122042
					CHANNELS 3 Zrotation Yrotation Xrotation
					End Site
					{
						OFFSET 0.000000 0.000000 0.000000
					}
				}
			}
		}
	}
	JOINT rhip
	{
		OFFSET -0.060310 -0.090513 -0.013543
		CHANNELS 3 Zrotation Yrotation Xrotation
		JOINT rknee
		{
			OFFSET -0.043257 -0.383688 -0.004843
			CHANNELS 3 Zrotation Yrotation Xrotation
			JOINT rankle
			{
				OFFSET 0.019056 -0.420046 -0.034562
				CHANNELS 3 Zrotation Yrotation Xrotation
				JOINT rtoe
				{
					OFFSET -0.034840 -0.062106 0.130323
					CHANNELS 3 Zrotation Yrotation Xrotation
					End Site
					{
						OFFSET 0.000000 0.000000 0.000000
					}
				}
			}
		}
	}
	JOINT lowerback
	{
		OFFSET 0.004439 0.124404 -0.038385
		CHANNELS 3 Zrotation Yrotation Xrotation
		JOINT upperback
		{
			OFFSET 0.004488 0.137956 0.026820
			CHANNELS 3 Zrotation Yrotation Xrotation
			JOINT chest
			{
				OFFSET -0.002265 0.056032 0.002855
				CHANNELS 3 Zrotation Yrotation Xrotation
				JOINT lowerneck
				{
					OFFSET -0.013390 0.211636 -0.033468
					CHANNELS 3 Zrotation Yrotation Xrotation
					JOINT upperneck
					{
						OFFSET 0.010113 0.088937 0.050410
						CHANNELS 3 Zrotation Yrotation Xrotation
						End Site
						{
							OFFSET 0.000000 0.000000 0.000000
						}
					}
				}
				JOINT lclavicle
				{
					OFFSET 0.071702 0.114000 -0.018898
					CHANNELS 3 Zrotation Yrotation Xrotation
					JOINT lshoulder
					{
						OFFSET 0.122921 0.045205 -0.019046
						CHANNELS 3 Zrotation Yrotation Xrotation
						JOINT lelbow
						{
							OFFSET 0.255332 -0.015649 -0.022946
							CHANNELS 3 Zrotation Yrotation Xrotation
							JOINT lwrist
							{
								OFFSET 0.265709 0.012698 -0.007375
								CHANNELS 3 Zrotation Yrotation Xrotation
								End Site
								{
									OFFSET 0.000000 0.000000 0.000000
								}
							}
						}
					}
				}
				JOINT rclavicle
				{
					OFFSET -0.082954 0.112472 -0.023707
					CHANNELS 3 Zrotation Yrotation Xrotation
					JOINT rshoulder
					{
						OFFSET -0.113228 0.046853 -0.008472
						CHANNELS 3 Zrotation Yrotation Xrotation
						JOINT relbow
						{
							OFFSET -0.260127 -0.014369 -0.031269
							CHANNELS 3 Zrotation Yrotation Xrotation
							JOINT rwrist
							{
								OFFSET -0.269108 0.006794 -0.006027
								CHANNELS 3 Zrotation Yrotation Xrotation
								End Site
								{
									OFFSET 0.000000 0.000000 0.000000
								}
							}
						}
					}
				}
			}
		}
	}
}
MOTION
Frames: 16
Frame Time: 0.033333
-2.046299 0.815780 0.994649 72.240712 -0.186518 86.967403 -1.369956 -3.103061 -4.118134 -3.731517 -7.420370 12.924053 1.899875 6.959475 -15.176500 0.000000 -0.000000 0.000000 -2.003630 -1.669221 -1.268922 -2.636814 -0.376970 17.671967 2.277437 -9.283268 -21.054006 0.000000 -0.000000 0.000000 -2.356679 3.864016 6.233134 2.787442 -1.514375 2.834841 2.706897 0.337765 0.516735 4.381279 12.186139 -8.889751 -0.840816 4.577107 -6.549585 -23.270874 -9.865293 -0.041757 -55.362553 -13.172473 15.312821 -1.572412 -22.926566 17.868970 -7.580381 -1.644219 -6.274062 24.137338 9.919677 2.160032 56.211064 12.010013 19.090838 -9.829777 24.292503 9.495864 11.363746 -2.395607 1.435432 
-2.048166 0.814851 0.994963 75.698878 -0.338346 86.468445 -1.528748 -4.008592 -3.839310 -3.761110 -8.909407 12.665718 1.410752 6.446778 -14.387890 0.000000 -0.000000 0.000000 -0.661677 -0.672336 0.387640 -3.553373 0.530357 15.864596 1.776803 -9.668703 -20.608540 0.000000 -0.000000 0.000000 -2.636241 3.621525 6.072647 2.729518 -1.977070 3.201248 2.403223 0.356496 0.515609 4.598422 11.295000 -8.392361 -0.160102 3.334820 -5.671550 -23.200837 -9.636119 0.155754 -55.241793 -13.125289 15.348029 -1.390672 -22.317794 17.032363 -7.951809 -1.842009 -7.134046 23.896752 9.261151 1.852070 56.522057 10.635036 19.219113 -10.158293 24.795304 9.998658 12.322752 -2.372451 0.319573 
-2.051446 0.813059 0.994508 79.070425 -0.564900 86.322664 -1.652678 -4.566465 -4.234201 -3.801945 -10.374957 12.716570 0.811864 5.251269 -13.940967 0.000000 -0.000000 0.000000 0.065600 -1.025985 1.447595 -4.565913 -0.847101 14.243658 1.007855 -11.538198 -19.026976 0.000000 -0.000000 0.000000 -2.921163 3.567352 6.261226 2.477184 -2.390083 2.809674 2.221791 0.047379 0.688974 4.557217 10.085926 -7.837757 0.485195 2.618654 -5.367466 -23.070515 -9.165951 0.450910 -55.104770 -13.289092 15.004334 -1.122846 -21.959157 16.891625 -7.868870 -2.142231 -7.700074 23.572674 8.413972 1.237410 57.056118 9.541395 19.094304 -10.295427 25.174390 10.118834 12.188282 -1.406165 -0.152878 
-2.055124 0.811012 0.994878 81.672973 -0.618444 86.301265 -1.527851 -4.728278 -4.479249 -3.867779 -11.933557 12.270045 0.417699 4.467458 -13.305584 0.000000 -0.000000 0.000000 0.335458 -2.302783 2.521019 -4.935879 -2.020866 12.366394 0.813593 -11.802368 -18.030613 0.000000 -0.000000 0.000000 -2.698338 3.767674 5.799726 2.108161 -2.712770 3.009072 1.860566 -0.002564 0.727873 4.472949 9.389815 -6.976548 1.046457 2.019489 -5.334037 -23.436342 -8.804004 0.488354 -54.457376 -12.898244 14.759856 -1.168942 -21.520559 16.795940 -6.959870 -1.834702 -6.765577 23.614737 7.978599 1.327831 57.023748 8.621325 18.549400 -10.450665 25.886538 9.450818 11.479302 -1.051547 -0.982577 
-2.061079 0.808341 0.995135 83.728479 -0.424178 86.415506 -1.049952 -5.049612 -5.420713 -3.929760 -12.582372 12.662540 -0.005529 3.493316 -12.882468 0.000000 -0.000000 0.000000 0.533600 -3.494726 3.319880 -4.812782 -3.276582 10.275097 1.041707 -11.983459 -17.215387 0.000000 -0.000000 0.000000 -2.355226 4.163401 6.235841 1.861626 -2.764518 2.468900 1.735750 0.147093 0.701996 4.307966 8.604357 -7.174588 1.376483 1.389895 -4.843526 -23.459383 -8.327414 0.380331 -54.615420 -12.585512 14.547206 -0.832866 -20.692199 17.178565 -6.609401 -2.312636 -6.270241 23.434473 7.354789 1.031705 57.028378 7.888202 17.957328 -10.530780 26.286686 9.113199 10.883649 -0.524199 -1.420216 
-2.068625 0.805494 0.995111 84.911811 -0.301402 86.618197 -0.462117 -5.259503 -6.353556 -4.106478 -12.776045 12.768057 -0.275284 2.803891 -12.637772 0.000000 -0.000000 0.000000 0.471498 -4.780040 3.367360 -4.379438 -4.019717 9.024357 1.363226 -11.535093 -16.296822 0.000000 -0.000000 0.000000 -2.151705 5.092366 6.053575 1.667070 -2.519494 2.758805 1.735638 0.280468 0.785757 4.082631 8.352631 -7.113562 1.702391 1.023982 -4.619797 -23.273642 -8.072236 0.214455 -55.086152 -12.494632 14.463398 -0.295514 -20.280749 16.845645 -5.486229 -2.351614 -5.939985 23.197743 7.349255 1.023273 56.810824 7.920143 17.306578 -10.668517 26.113098 8.628087 10.173260 -0.448158 -1.652363 
-2.075569 0.801702 0.995443 85.882915 -0.153386 86.721470 -0.016984 -5.375031 -7.210201 -3.938543 -12.917370 13.048452 -0.520993 2.591939 -13.065476 0.000000 -0.000000 0.000000 0.788952 -5.696134 3.375255 -4.226959 -4.656954 8.032153 1.732593 -11.274303 -16.001231 0.000000 -0.000000 0.000000 -1.991939 5.530146 6.634706 1.479840 -2.110059 1.999061 1.829647 0.531448 0.800473 4.257031 7.934637 -7.251520 1.800046 0.605159 -3.857369 -23.202947 -6.740623 -0.281418 -55.582423 -11.805996 14.209925 -0.254988 -20.720099 16.944843 -4.532874 -2.006578 -5.930841 23.115715 7.012524 0.881561 56.566143 8.060698 17.013064 -10.376255 25.382443 8.799377 9.127702 -0.236788 -0.855078 
-2.081778 0.797387 0.995389 86.335166 -0.143498 86.621633 0.393444 -5.366189 -7.595877 -3.918884 -13.104821 13.068104 -1.156153 2.613279 -13.352730 0.000000 -0.000000 0.000000 1.405213 -5.873619 3.573948 -4.500269 -4.984818 7.020622 1.658466 -11.491492 -15.754629 0.000000 -0.000000 0.000000 -2.131797 5.878906 6.737460 1.351048 -1.568832 1.889218 2.057825 0.793125 1.050430 4.444323 7.708240 -7.190933 1.864263 0.426810 -3.537225 -23.097568 -5.985636 -0.544210 -56.090176 -11.051303 14.057356 0.003423 -20.926998 16.779001 -2.025190 -1.622963 -5.426753 23.017993 7.286475 0.924696 56.230969 8.651190 16.979254 -9.811999 24.616700 9.248577 7.034506 -0.926399 -0.461556 
-2.087925 0.792804 0.995008 86.794800 -0.128646 86.228909 0.730149 -5.475107 -7.708008 -3.752264 -13.126011 13.183589 -1.717024 2.500731 -13.263141 0.000000 -0.000000 0.000000 2.082561 -5.708205 4.205246 -4.747579 -4.987885 5.903765 1.339123 -11.912563 -15.598278 0.000000 -0.000000 0.000000 -2.113877 6.002927 7.204082 1.295132 -1.322717 1.955651 2.159481 0.923859 1.288145 4.404006 7.683237 -7.452990 1.870126 0.400869 -3.236599 -23.081139 -5.388739 -0.472460 -56.284241 -10.293141 13.770441 0.209959 -21.192827 16.410583 -1.181714 -1.616143 -6.171344 22.917006 7.773683 0.861724 56.009195 9.490917 16.991900 -9.657526 24.049239 9.444028 5.757798 -1.081517 0.170086 
-2.094156 0.788275 0.994600 87.510266 -0.067391 86.024004 1.223611 -5.828646 -8.330563 -3.825159 -12.953171 13.737968 -2.391302 2.224131 -13.578615 0.000000 -0.000000 0.000000 2.665969 -5.756436 4.783015 -4.804230 -5.371091 4.561486 1.588785 -11.962555 -15.784464 0.000000 -0.000000 0.000000 -1.961592 5.985203 8.001230 1.253656 -1.497846 1.189155 2.090611 1.090432 1.378368 4.683060 7.873710 -7.555747 1.709088 0.052073 -2.323576 -23.254997 -4.636632 -0.286217 -56.083690 -9.474149 13.556100 0.078589 -20.765925 16.160561 -2.869501 -3.122294 -7.584321 23.222312 7.731080 0.658693 55.763433 10.107273 17.293952 -9.551556 23.966874 9.879451 5.909038 -0.907508 0.499264 
-2.099528 0.783752 0.994421 88.059076 -0.007259 86.048572 1.843071 -5.826064 -8.920646 -4.062651 -12.913559 13.934260 -2.783941 1.857313 -13.865090 0.000000 -0.000000 0.000000 2.943517 -6.224581 5.101495 -4.430640 -5.363907 3.303788 1.603560 -11.737953 -15.695188 0.000000 -0.000000 0.000000 -1.813377 6.243798 7.791934 1.312111 -1.628910 1.283546 2.106219 0.972403 1.429488 4.741182 8.049539 -7.344190 1.450798 -0.206010 -1.841816 -23.402066 -4.284533 -0.132447 -55.959848 -8.704046 13.468869 -0.739647 -19.845897 16.781047 -2.523228 -2.690024 -6.663010 23.528994 7.788725 0.603993 55.390610 10.615350 17.301029 -9.133903 24.625494 9.983297 4.565641 -0.429604 0.448805 
-2.104759 0.778621 0.994403 88.216476 -0.118455 86.202454 2.485661 -5.369053 -9.342249 -4.437587 -13.008843 13.516222 -3.007789 1.164022 -12.807760 0.000000 -0.000000 0.000000 3.259289 -6.496391 4.811515 -4.344999 -5.140714 2.830837 1.330446 -11.578765 -15.626122 0.000000 -0.000000 0.000000 -1.983300 6.386170 7.542578 1.401278 -1.727013 1.446078 2.084631 1.106503 1.103081 4.893479 8.283827 -6.864671 1.375146 -0.476517 -1.331322 -23.355383 -4.066312 -0.005090 -56.014155 -7.770091 13.612249 -1.473557 -18.660239 18.088737 -1.924772 -2.017710 -4.937583 23.805212 7.776224 0.828619 55.461070 11.074005 17.246138 -9.004014 25.585764 9.894262 3.784445 0.002043 -0.130406 
-2.109068 0.773667 0.994478 88.223714 -0.277195 85.787359 2.619518 -5.092756 -8.963956 -4.225983 -13.177883 13.170762 -3.144852 0.802141 -12.006071 0.000000 -0.000000 0.000000 3.656351 -6.219362 5.342007 -4.505357 -5.050776 2.124496 0.856107 -11.787192 -15.259790 0.000000 -0.000000 0.000000 -2.087765 6.583138 7.598192 1.489403 -1.517658 1.722085 2.181143 1.000425 1.120858 4.864000 8.473816 -6.468236 1.155546 -0.540400 -1.106357 -23.572398 -4.143859 0.262964 -56.114268 -7.209774 13.624479 -1.740215 -17.587182 19.193645 -2.847173 -1.703175 -3.758392 23.883395 7.957854 0.844038 55.677931 11.275684 17.305901 -9.090692 26.705340 9.568367 3.563667 0.197630 -1.181388 
-2.113645 0.768793 0.994244 88.612862 -0.423912 85.428827 2.769238 -5.123778 -8.956093 -4.194740 -13.400956 13.215442 -3.069050 0.486511 -11.173682 0.000000 -0.000000 0.000000 3.935236 -6.080698 5.744014 -4.465266 -5.293226 1.544928 0.348768 -11.950874 -14.363273 0.000000 -0.000000 0.000000 -2.116601 6.429138 8.078369 1.531695 -1.642369 1.445280 2.167534 0.978504 1.138457 4.982994 8.661880 -6.310127 1.004702 -0.506021 -0.394031 -23.621228 -3.952838 0.454635 -56.368768 -6.679529 13.691619 -2.266326 -17.184961 20.241909 -4.456257 -1.518253 -3.868993 23.846755 7.876242 0.694195 56.394191 11.425652 17.671800 -9.415360 27.739963 9.323298 4.336184 -0.097342 -2.144339 
-2.117629 0.763832 0.993846 88.775630 -0.575378 85.152823 2.919947 -5.156399 -9.152975 -4.192448 -13.286743 13.682667 -3.164181 0.467525 -10.806927 0.000000 -0.000000 0.000000 4.244820 -5.946776 5.979059 -4.525042 -5.432876 1.145681 -0.071466 -12.062157 -13.841710 0.000000 -0.000000 0.000000 -2.148184 6.406247 8.477907 1.579663 -1.674180 1.022111 2.186165 0.987416 1.159347 5.097348 8.926971 -6.069807 0.938466 -0.330564 0.341960 -23.775358 -3.727295 0.615273 -56.438799 -6.199356 13.825900 -3.173772 -17.492442 20.923522 -5.741787 -1.420873 -4.054174 24.144668 7.830043 0.793078 56.695175 11.479383 17.970461 -9.632570 28.507373 9.144853 4.995787 -0.073477 -2.293292 
-2.121614 0.758933 0.993198 88.911992 -0.579767 84.815435 3.351900 -5.081567 -9.491466 -4.460122 -13.039536 14.503327 -3.110521 0.115897 -10.719257 0.000000 -0.000000 0.000000 4.498153 -6.243604 6.482155 -4.407925 -5.674781 0.415008 -0.372086 -11.603153 -13.380287 0.000000 -0.000000 0.000000 -2.043479 6.524932 8.471912 1.731632 -1.802762 1.305429 2.296531 0.887162 1.214084 5.139926 9.256934 -5.791178 0.762858 -0.037503 0.892941 -23.801752 -3.778828 0.738118 -56.979068 -6.148138 14.168271 -3.767141 -17.825130 21.701328 -5.810007 -1.701917 -4.406039 24.031899 7.822024 0.781882 57.134687 11.882738 18.118444 -9.487513 28.589281 9.518763 4.856213 0.363028 -2.364978 
